<?xml version="1.0" encoding="utf-8"?>
<!-- Generator: Adobe Illustrator 23.0.1, SVG Export Plug-In . SVG Version: 6.00 Build 0)  -->
<svg version="1.1" id="Layer_1" xmlns="http://www.w3.org/2000/svg" xmlns:xlink="http://www.w3.org/1999/xlink" x="0px" y="0px"
	 viewBox="0 0 1024 768" style="enable-background:new 0 0 1024 768;" xml:space="preserve">
<style type="text/css">
	.st0{fill:#FFFFFF;}
</style>
<path class="st0" d="M620.24,239.75c-131.69-79.44-361.07,92.42-345.56,160.91c17.3,76.38,359.63,114.67,417.05,11.49
	C720.23,360.96,678.59,274.95,620.24,239.75z M374.19,409.99c-1.24,2.35-3,4.28-5.27,5.79c-2.27,1.52-4.78,2.57-7.5,3.18
	c-2.73,0.61-5.6,0.91-8.62,0.91c-4.67,0-10.56-0.68-17.68-2.03c-0.37-6.14-0.81-11.05-1.3-14.74c3.23,1.44,6.11,2.44,8.64,3
	c2.53,0.57,4.74,0.84,6.65,0.84c2.51,0,4.51-0.37,6-1.1c1.49-0.73,2.23-1.82,2.23-3.26c0-0.49-0.07-0.96-0.22-1.41
	c-0.15-0.44-0.42-0.95-0.83-1.51c-0.4-0.57-0.98-1.17-1.73-1.84l-8.15-7.09c-1.91-1.61-3.23-2.78-3.98-3.5
	c-1.53-1.47-2.72-2.84-3.57-4.11c-0.85-1.27-1.47-2.56-1.86-3.87c-0.39-1.31-0.59-2.7-0.59-4.17c0-1.76,0.31-3.48,0.93-5.16
	c0.62-1.69,1.55-3.27,2.79-4.73c1.24-1.47,2.88-2.74,4.93-3.8c2.05-1.06,4.24-1.8,6.57-2.18c2.33-0.39,4.74-0.59,7.22-0.59
	c4.87,0,10.17,0.56,15.91,1.69c0.09,1.99,0.19,3.81,0.3,5.47c0.11,1.65,0.39,4.56,0.82,8.71c-2.65-1.06-5.07-1.81-7.26-2.22
	c-2.19-0.42-4.08-0.63-5.66-0.63c-2.25,0-4.11,0.42-5.6,1.25c-1.49,0.84-2.23,1.87-2.23,3.11c0,0.58,0.11,1.14,0.35,1.69
	c0.23,0.55,0.66,1.19,1.3,1.93c0.63,0.73,1.47,1.54,2.51,2.42c1.04,0.88,2.66,2.18,4.88,3.91l3.11,2.46
	c0.92,0.75,1.92,1.66,2.98,2.72c1.06,1.06,1.99,2.12,2.77,3.16c0.78,1.04,1.38,1.99,1.8,2.85c0.42,0.86,0.73,1.74,0.93,2.62
	c0.2,0.88,0.3,1.82,0.3,2.83C376.05,405.18,375.43,407.65,374.19,409.99z M435.69,361.17c-0.03,0.34-0.1,1.59-0.22,3.75l-0.26,4.7
	c-0.06,1.01-0.09,2.02-0.09,3.06c-5.56-0.23-10.23-0.35-14-0.35c-4.15,0-6.95,0.01-8.41,0.02c-1.45,0.01-3.72,0.08-6.81,0.19
	l-0.53,9.94c3.4,0.09,7.37,0.13,11.89,0.13c1.61,0,5.91-0.1,12.88-0.3c-0.29,3.69-0.56,8.08-0.82,13.18
	c-4.98-0.06-8.81-0.09-11.49-0.09c-3.98,0-8.42,0.1-13.35,0.3l-0.51,10.5h4.97c1.47,0,4.51-0.04,9.12-0.13l8.94-0.22
	c1.32-0.03,3.54-0.15,6.65-0.35c-0.35,4.26-0.63,8.67-0.86,13.23c-7.03-0.06-14.74-0.09-23.12-0.09l-19.02,0.04l-6.14,0.04
	c0.72-7.43,1.25-13.66,1.58-18.67c0.33-5.01,0.66-11.68,0.99-19.99c0.33-8.31,0.5-13.82,0.5-16.53l-0.04-3.8
	c6.8,0.06,15.03,0.09,24.68,0.09c8.9,0,16.75-0.03,23.55-0.09L435.69,361.17z M506.62,372.63l-1.94,35.79l-0.26,10.33
	c-3.75-0.06-7.25-0.09-10.51-0.09c-2.71,0-6.46,0.03-11.25,0.09c-1.5-2.83-2.61-4.87-3.32-6.14l-7.25-12.32
	c-2.39-4.04-4.59-7.9-6.6-11.59c-1.32-2.33-2.69-4.9-4.1-7.7l-0.93,20.49L460,418.75c-3.57-0.06-6.29-0.09-8.16-0.09
	c-1.58,0-4.55,0.03-8.89,0.09l0.86-9.08l1.69-30.77l0.48-12.4v-6.74c4.48,0.06,8.43,0.09,11.86,0.09c2.45,0,5.9-0.03,10.35-0.09
	l18.45,33.55l2.54,4.93c0.33-4.84,0.66-11.63,1-20.36c0.34-8.73,0.51-14.77,0.51-18.12c3.54,0.06,6.38,0.09,8.51,0.09
	c0.98,0,3.8-0.03,8.46-0.09L506.62,372.63z M554.11,409.99c-1.24,2.35-3,4.28-5.27,5.79c-2.27,1.52-4.78,2.57-7.5,3.18
	c-2.73,0.61-5.6,0.91-8.62,0.91c-4.67,0-10.56-0.68-17.68-2.03c-0.37-6.14-0.81-11.05-1.3-14.74c3.23,1.44,6.11,2.44,8.64,3
	c2.53,0.57,4.74,0.84,6.65,0.84c2.51,0,4.51-0.37,6-1.1c1.49-0.73,2.23-1.82,2.23-3.26c0-0.49-0.07-0.96-0.22-1.41
	c-0.15-0.44-0.42-0.95-0.83-1.51c-0.4-0.57-0.98-1.17-1.73-1.84l-8.15-7.09c-1.91-1.61-3.23-2.78-3.98-3.5
	c-1.53-1.47-2.72-2.84-3.57-4.11c-0.85-1.27-1.47-2.56-1.86-3.87c-0.39-1.31-0.59-2.7-0.59-4.17c0-1.76,0.31-3.48,0.93-5.16
	c0.62-1.69,1.55-3.27,2.79-4.73c1.24-1.47,2.88-2.74,4.93-3.8c2.05-1.06,4.24-1.8,6.57-2.18c2.33-0.39,4.74-0.59,7.22-0.59
	c4.87,0,10.17,0.56,15.91,1.69c0.09,1.99,0.19,3.81,0.3,5.47c0.11,1.65,0.39,4.56,0.82,8.71c-2.65-1.06-5.07-1.81-7.26-2.22
	c-2.19-0.42-4.08-0.63-5.66-0.63c-2.25,0-4.11,0.42-5.6,1.25c-1.49,0.84-2.23,1.87-2.23,3.11c0,0.58,0.11,1.14,0.35,1.69
	s0.66,1.19,1.3,1.93c0.63,0.73,1.47,1.54,2.51,2.42c1.04,0.88,2.66,2.18,4.88,3.91l3.11,2.46c0.92,0.75,1.92,1.66,2.98,2.72
	c1.06,1.06,1.99,2.12,2.77,3.16s1.38,1.99,1.8,2.85c0.42,0.86,0.73,1.74,0.93,2.62c0.2,0.88,0.3,1.82,0.3,2.83
	C555.97,405.18,555.35,407.65,554.11,409.99z M631.63,401.4c-1.74,4.05-4.26,7.48-7.54,10.31c-3.28,2.83-7.2,4.89-11.76,6.2
	c-4.55,1.31-9.29,1.96-14.22,1.96c-4.87,0-9.54-0.64-14-1.93c-4.47-1.28-8.35-3.36-11.65-6.22c-3.3-2.86-5.64-6.05-7.03-9.57
	c-1.38-3.52-2.07-7.42-2.07-11.71c0-6.31,1.46-11.85,4.38-16.62c2.93-4.77,7.26-8.49,13.01-11.17c5.74-2.68,12.22-4.02,19.43-4.02
	c4.61,0,9.05,0.62,13.31,1.86s8,3.22,11.19,5.94c3.2,2.73,5.59,5.86,7.17,9.4c1.58,3.54,2.38,7.62,2.38,12.23
	C634.25,392.9,633.37,397.34,631.63,401.4z M613.59,379.87c1.3,2.61,1.94,5.45,1.94,8.53c0,3.17-0.7,6.2-2.09,9.1
	c-1.4,2.89-3.43,5.14-6.1,6.74c-2.66,1.6-5.6,2.4-8.79,2.4c-3,0-5.83-0.72-8.51-2.14c-2.68-1.43-4.68-3.41-5.98-5.94
	c-1.31-2.53-1.97-5.33-1.97-8.38c0-3.31,0.72-6.42,2.16-9.32c1.44-2.89,3.5-5.16,6.18-6.78c2.68-1.63,5.68-2.44,8.99-2.44
	c3.14,0,5.96,0.72,8.47,2.16C610.39,375.24,612.29,377.26,613.59,379.87z"/>
</svg>
